<svg xmlns="http://www.w3.org/2000/svg" width="1600" height="980" viewBox="0 0 1600 980">
  <rect width="1600" height="980" fill="#f6f8fb"/>
  <rect width="1600" height="140" fill="#121f34"/>
  <text x="54" y="66" fill="#ffffff" font-family="Arial, Helvetica, sans-serif" font-size="42" font-weight="700">Legal AI Product Boundary Eval &amp; Data Governance Harness</text>
  <text x="56" y="102" fill="#cbd5e1" font-family="Arial, Helvetica, sans-serif" font-size="23">Model routing | RAG reliability | A5 trace eval | Human review | Release gates | Data asset routing</text>

  <g font-family="Arial, Helvetica, sans-serif">
    <g transform="translate(54 175)">
      <rect width="282" height="128" rx="8" fill="#ffffff" stroke="#cbd5e1"/>
      <rect width="7" height="128" fill="#2563eb"/>
      <text x="25" y="38" fill="#64748b" font-size="18" font-weight="700">Qianfan API run records</text>
      <text x="25" y="86" fill="#1f2937" font-size="40" font-weight="700">300</text>
    </g>
    <g transform="translate(358 175)">
      <rect width="282" height="128" rx="8" fill="#ffffff" stroke="#cbd5e1"/>
      <rect width="7" height="128" fill="#16a34a"/>
      <text x="25" y="38" fill="#64748b" font-size="18" font-weight="700">Non-empty answers</text>
      <text x="25" y="86" fill="#1f2937" font-size="40" font-weight="700">271</text>
    </g>
    <g transform="translate(662 175)">
      <rect width="282" height="128" rx="8" fill="#ffffff" stroke="#cbd5e1"/>
      <rect width="7" height="128" fill="#be123c"/>
      <text x="25" y="38" fill="#64748b" font-size="18" font-weight="700">Priority review rows</text>
      <text x="25" y="86" fill="#1f2937" font-size="40" font-weight="700">80</text>
    </g>
    <g transform="translate(966 175)">
      <rect width="282" height="128" rx="8" fill="#ffffff" stroke="#cbd5e1"/>
      <rect width="7" height="128" fill="#2563eb"/>
      <text x="25" y="38" fill="#64748b" font-size="18" font-weight="700">RAG V2 run records</text>
      <text x="25" y="86" fill="#1f2937" font-size="40" font-weight="700">72</text>
    </g>
    <g transform="translate(1270 175)">
      <rect width="282" height="128" rx="8" fill="#ffffff" stroke="#cbd5e1"/>
      <rect width="7" height="128" fill="#7c3aed"/>
      <text x="25" y="38" fill="#64748b" font-size="18" font-weight="700">A5 traces / turns</text>
      <text x="25" y="86" fill="#1f2937" font-size="40" font-weight="700">24 / 72</text>
    </g>
  </g>

  <g transform="translate(54 335)" font-family="Arial, Helvetica, sans-serif">
    <rect width="706" height="355" rx="8" fill="#ffffff" stroke="#cbd5e1"/>
    <text x="26" y="43" fill="#1f2937" font-size="24" font-weight="700">Product Eval Loop</text>
    <text x="26" y="73" fill="#64748b" font-size="15">Each run: response_policy + workflow_status; assets require human acceptance.</text>
    <g transform="translate(28 111)">
      <circle cx="12" cy="12" r="12" fill="#2563eb"/><text x="8" y="18" fill="#ffffff" font-size="14" font-weight="700">1</text>
      <text x="40" y="10" fill="#1f2937" font-size="18" font-weight="700">Legal task slice</text>
      <text x="40" y="33" fill="#64748b" font-size="15">normal / hard / risk / citation / adversarial</text>
      <line x1="12" y1="29" x2="12" y2="42" stroke="#cbd5e1" stroke-width="2"/>
    </g>
    <g transform="translate(28 154)">
      <circle cx="12" cy="12" r="12" fill="#2563eb"/><text x="8" y="18" fill="#ffffff" font-size="14" font-weight="700">2</text>
      <text x="40" y="10" fill="#1f2937" font-size="18" font-weight="700">Agent architecture</text>
      <text x="40" y="33" fill="#64748b" font-size="15">A0 closed-book to A5 multi-turn intake</text>
      <line x1="12" y1="29" x2="12" y2="42" stroke="#cbd5e1" stroke-width="2"/>
    </g>
    <g transform="translate(28 197)">
      <circle cx="12" cy="12" r="12" fill="#2563eb"/><text x="8" y="18" fill="#ffffff" font-size="14" font-weight="700">3</text>
      <text x="40" y="10" fill="#1f2937" font-size="18" font-weight="700">Verification</text>
      <text x="40" y="33" fill="#64748b" font-size="15">retrieval + citation + claim + risk checks</text>
      <line x1="12" y1="29" x2="12" y2="42" stroke="#cbd5e1" stroke-width="2"/>
    </g>
    <g transform="translate(28 240)">
      <circle cx="12" cy="12" r="12" fill="#2563eb"/><text x="8" y="18" fill="#ffffff" font-size="14" font-weight="700">4</text>
      <text x="40" y="10" fill="#1f2937" font-size="18" font-weight="700">Response policy</text>
      <text x="40" y="33" fill="#64748b" font-size="15">auto_answer / grounded_answer / clarify / human_review / block</text>
      <line x1="12" y1="29" x2="12" y2="42" stroke="#cbd5e1" stroke-width="2"/>
    </g>
    <g transform="translate(28 283)">
      <circle cx="12" cy="12" r="12" fill="#2563eb"/><text x="8" y="18" fill="#ffffff" font-size="14" font-weight="700">5</text>
      <text x="40" y="10" fill="#1f2937" font-size="18" font-weight="700">Review &amp; data asset routes</text>
      <text x="40" y="33" fill="#64748b" font-size="15">workflow_status → eval / SFT / preference / badcase / regression</text>
    </g>
  </g>

  <g transform="translate(792 335)" font-family="Arial, Helvetica, sans-serif">
    <rect width="754" height="355" rx="8" fill="#ffffff" stroke="#cbd5e1"/>
    <text x="26" y="43" fill="#1f2937" font-size="24" font-weight="700">Release Evidence Snapshot</text>
    <text x="26" y="73" fill="#64748b" font-size="17">Counts are separated from uncalibrated model-quality claims.</text>
    <g transform="translate(30 108)">
      <text x="0" y="0" fill="#1f2937" font-size="16">Non-empty answer availability</text>
      <rect x="300" y="-13" width="315" height="14" rx="7" fill="#e2e8f0"/><rect x="300" y="-13" width="285" height="14" rx="7" fill="#16a34a"/>
      <text x="635" y="0" fill="#64748b" font-size="16">271 / 300</text>
    </g>
    <g transform="translate(30 158)">
      <text x="0" y="0" fill="#1f2937" font-size="16">Release groups blocked</text>
      <rect x="300" y="-13" width="315" height="14" rx="7" fill="#e2e8f0"/><rect x="300" y="-13" width="147" height="14" rx="7" fill="#be123c"/>
      <text x="635" y="0" fill="#64748b" font-size="16">35 / 75</text>
    </g>
    <g transform="translate(30 208)">
      <text x="0" y="0" fill="#1f2937" font-size="16">Limited-release groups</text>
      <rect x="300" y="-13" width="315" height="14" rx="7" fill="#e2e8f0"/><rect x="300" y="-13" width="168" height="14" rx="7" fill="#d97706"/>
      <text x="635" y="0" fill="#64748b" font-size="16">40 / 75</text>
    </g>
    <g transform="translate(30 258)">
      <text x="0" y="0" fill="#1f2937" font-size="16">RAG strict citation-defect flags</text>
      <rect x="300" y="-13" width="315" height="14" rx="7" fill="#e2e8f0"/><rect x="300" y="-13" width="278" height="14" rx="7" fill="#be123c"/>
      <text x="635" y="0" fill="#64748b" font-size="16">555 / 630</text>
    </g>
    <g transform="translate(30 308)">
      <text x="0" y="0" fill="#1f2937" font-size="16">RAG needs-review flags</text>
      <rect x="300" y="-13" width="315" height="14" rx="7" fill="#e2e8f0"/><rect x="300" y="-13" width="296" height="14" rx="7" fill="#d97706"/>
      <text x="635" y="0" fill="#64748b" font-size="16">591 / 630</text>
    </g>
  </g>

  <g transform="translate(54 725)" font-family="Arial, Helvetica, sans-serif">
    <rect width="1492" height="190" rx="8" fill="#ffffff" stroke="#cbd5e1"/>
    <text x="26" y="44" fill="#1f2937" font-size="24" font-weight="700">What the project decides</text>
    <g transform="translate(28 80)">
      <rect width="320" height="78" rx="8" fill="#f8fafc" stroke="#e2e8f0"/><rect width="6" height="78" fill="#16a34a"/>
      <text x="20" y="29" fill="#1f2937" font-size="18" font-weight="700">Candidate auto-answer</text>
      <text x="20" y="55" fill="#64748b" font-size="14">policy hypothesis; 0 / 75 groups</text>
    </g>
    <g transform="translate(388 80)">
      <rect width="320" height="78" rx="8" fill="#f8fafc" stroke="#e2e8f0"/><rect width="6" height="78" fill="#2563eb"/>
      <text x="20" y="29" fill="#1f2937" font-size="18" font-weight="700">Grounding required</text>
      <text x="20" y="55" fill="#64748b" font-size="14">contract, statute, case, policy claims</text>
    </g>
    <g transform="translate(748 80)">
      <rect width="320" height="78" rx="8" fill="#f8fafc" stroke="#e2e8f0"/><rect width="6" height="78" fill="#7c3aed"/>
      <text x="20" y="29" fill="#1f2937" font-size="18" font-weight="700">Clarification required</text>
      <text x="20" y="55" fill="#64748b" font-size="14">missing facts and high-risk strategy</text>
    </g>
    <g transform="translate(1108 80)">
      <rect width="320" height="78" rx="8" fill="#f8fafc" stroke="#e2e8f0"/><rect width="6" height="78" fill="#be123c"/>
      <text x="20" y="29" fill="#1f2937" font-size="18" font-weight="700">Human review / block</text>
      <text x="20" y="55" fill="#64748b" font-size="14">unsafe drafting and unsupported claims</text>
    </g>
  </g>

  <text x="56" y="946" fill="#64748b" font-family="Arial, Helvetica, sans-serif" font-size="17">Pilot-scale product diagnosis; automated flags are review signals, not model error rates or legal conclusions.</text>
</svg>
